Coordinates
version=1
nRows=11
nColumns=40
inDegrees=yes

Units are S.I. units (second, meters, Newtons, ...)
If the header above contains a line with 'inDegrees', this indicates whether rotational values are in degrees (yes) or radians (no).

endheader
time	pelvis_tilt	pelvis_list	pelvis_rotation	pelvis_tx	pelvis_ty	pelvis_tz	hip_flexion_r	hip_adduction_r	hip_rotation_r	knee_angle_r	knee_angle_r_beta	ankle_angle_r	subtalar_angle_r	mtp_angle_r	hip_flexion_l	hip_adduction_l	hip_rotation_l	knee_angle_l	knee_angle_l_beta	ankle_angle_l	subtalar_angle_l	mtp_angle_l	lumbar_extension	lumbar_bending	lumbar_rotation	arm_flex_r	arm_add_r	arm_rot_r	elbow_flex_r	pro_sup_r	wrist_flex_r	wrist_dev_r	arm_flex_l	arm_add_l	arm_rot_l	elbow_flex_l	pro_sup_l	wrist_flex_l	wrist_dev_l
      1.20500000	     -3.09516500	     -3.19079138	      0.89882782	      0.17138620	      0.46911017	     -1.21917824	     89.46771828	    -49.12996599	     17.84680352	    118.67961279	      2.07135000	     32.04448049	     17.23965708	      0.00000000	     99.78712023	    -47.70509490	     25.13326644	    120.75220987	      2.10752364	     32.12170825	     23.64671147	      0.00000000	    -36.22339006	      4.45318795	     -5.07059486	     44.99987184	    -15.00000012	     44.99987184	     75.00017585	     45.00000026	      0.00000000	      0.00000000	     44.99987184	    -15.00000012	     44.99987184	     75.00017585	     45.00000026	      0.00000000	      0.00000000
      1.21000000	     -2.96619579	     -3.20388828	      0.88170475	      0.17159525	      0.46760023	     -1.21928346	     89.61643708	    -49.14147422	     18.14631753	    118.89088716	      2.07503743	     32.14125088	     17.34073380	      0.00000000	     99.93180047	    -47.67958594	     25.44985763	    120.99539331	      2.11176799	     32.26277058	     23.71923821	      0.00000000	    -36.39822763	      4.49626623	     -5.00679392	     44.99987633	    -15.00000010	     44.99987633	     75.00017585	     45.00000026	      0.00000000	      0.00000000	     44.99987633	    -15.00000010	     44.99987633	     75.00017585	     45.00000026	      0.00000000	      0.00000000
      1.21500000	     -2.73931532	     -3.23305016	      0.83670840	      0.17186412	      0.46635284	     -1.21934130	     89.61290164	    -49.15727008	     18.38631858	    119.06956449	      2.07815594	     32.15662167	     17.63498415	      0.00000000	     99.99125020	    -47.73278528	     25.79520979	    121.22243140	      2.11573056	     32.36161645	     23.81992149	      0.00000000	    -36.69244515	      4.47326453	     -4.99092477	     44.99988042	    -15.00000009	     44.99988042	     75.00017585	     45.00000026	      0.00000000	      0.00000000	     44.99988042	    -15.00000009	     44.99988042	     75.00017585	     45.00000026	      0.00000000	      0.00000000
      1.22000000	     -2.57292449	     -3.25357828	      0.82565387	      0.17207604	      0.46497283	     -1.21946325	     89.68534135	    -49.17161209	     18.66153159	    119.27519285	      2.08174483	     32.27718317	     17.73907209	      0.00000000	    100.08276491	    -47.70636041	     26.10798445	    121.45846077	      2.11985004	     32.51319635	     23.91349144	      0.00000000	    -36.91278583	      4.53763545	     -4.93640515	     44.99988422	    -15.00000008	     44.99988422	     75.00017585	     45.00000026	      0.00000000	      0.00000000	     44.99988422	    -15.00000008	     44.99988422	     75.00017585	     45.00000026	      0.00000000	      0.00000000
      1.22500000	     -2.32532996	     -3.28634974	      0.77875477	      0.17232376	      0.46380967	     -1.21951243	     89.64456810	    -49.18122889	     18.89129687	    119.44791692	      2.08475943	     32.31358769	     18.01102514	      0.00000000	    100.11188666	    -47.76594317	     26.45193460	    121.67717579	      2.12366734	     32.61760532	     24.03298304	      0.00000000	    -37.24185382	      4.50821765	     -4.90164094	     44.99988768	    -15.00000007	     44.99988768	     75.00017585	     45.00000026	      0.00000000	      0.00000000	     44.99988768	    -15.00000007	     44.99988768	     75.00017585	     45.00000026	      0.00000000	      0.00000000
      1.23000000	     -2.21831059	     -3.13792722	      0.70878620	      0.17260294	      0.46219475	     -1.21936837	     90.10179537	    -49.15925629	     19.52427894	    119.67635868	      2.08874650	     32.26587388	     18.34868275	      0.00000000	    100.08961499	    -47.83453143	     26.52458796	    121.92249026	      2.12794889	     32.70418775	     24.11813770	      0.00000000	    -37.32811793	      4.34164166	     -4.85467192	     44.99989061	    -15.00000006	     44.99989061	     75.00017585	     45.00000026	      0.00000000	      0.00000000	     44.99989061	    -15.00000006	     44.99989061	     75.00017585	     45.00000026	      0.00000000	      0.00000000
      1.23500000	     -2.00713656	     -3.53093696	      0.75671980	      0.17279257	      0.46108286	     -1.21995375	     89.50339207	    -49.22347490	     19.05273376	    119.80083833	      2.09091908	     32.45993075	     18.33071296	      0.00000000	    100.59990073	    -47.67505099	     27.43541262	    122.15721869	      2.13204567	     32.84718126	     24.16691327	      0.00000000	    -37.65724918	      4.63218755	     -5.06406784	     44.99989383	    -15.00000005	     44.99989383	     75.00017585	     45.00000026	      0.00000000	      0.00000000	     44.99989383	    -15.00000005	     44.99989383	     75.00017585	     45.00000026	      0.00000000	      0.00000000
      1.24000000	     -1.77862140	     -3.50001725	      0.72636474	      0.17301214	      0.45988571	     -1.21998162	     89.56786773	    -49.23016096	     19.39977773	    119.98934625	      2.09420916	     32.53475940	     18.50464217	      0.00000000	    100.53788175	    -47.70108624	     27.65299608	    122.37541252	      2.13585387	     32.99868426	     24.24684135	      0.00000000	    -37.94644097	      4.58470599	     -5.03006123	     44.99989681	    -15.00000004	     44.99989681	     75.00017585	     45.00000026	      0.00000000	      0.00000000	     44.99989681	    -15.00000004	     44.99989681	     75.00017585	     45.00000026	      0.00000000	      0.00000000
      1.24500000	     -1.58416675	     -3.18997344	      0.65682797	      0.17321137	      0.45853345	     -1.21968285	     90.14301183	    -49.20883009	     20.30699342	    120.21106392	      2.09807886	     32.53562075	     18.82197898	      0.00000000	    100.15185195	    -47.81273543	     27.41778402	    122.58548548	      2.13952034	     33.12404661	     24.37749461	      0.00000000	    -38.18313506	      4.37982428	     -4.78040875	     44.99989916	    -15.00000003	     44.99989916	     75.00017585	     45.00000026	      0.00000000	      0.00000000	     44.99989916	    -15.00000003	     44.99989916	     75.00017585	     45.00000026	      0.00000000	      0.00000000
      1.25000000	     -1.35811765	     -3.47106183	      0.65602756	      0.17343660	      0.45740597	     -1.22001500	     89.71362080	    -49.24099844	     20.04375512	    120.35910199	      2.10066261	     32.66782362	     18.92963525	      0.00000000	    100.52868954	    -47.74444751	     28.17668899	    122.81016844	      2.14344179	     33.26842319	     24.42205217	      0.00000000	    -38.47251659	      4.52780868	     -4.88864814	     44.99990163	    -15.00000003	     44.99990163	     75.00017585	     45.00000026	      0.00000000	      0.00000000	     44.99990163	    -15.00000003	     44.99990163	     75.00017585	     45.00000026	      0.00000000	      0.00000000
      1.25500000	     -1.25887888	     -3.56536534	      0.64414706	      0.17366617	      0.45583559	     -1.22020847	     89.79322072	    -49.25189631	     20.21689048	    120.55695628	      2.10411582	     32.70181455	     19.03828636	      0.00000000	    100.81822272	    -47.67362786	     28.64246015	    123.05542845	      2.14772239	     33.33503762	     24.47121965	      0.00000000	    -38.57565341	      4.57038248	     -4.93561122	     44.99990378	    -15.00000002	     44.99990378	     75.00017585	     45.00000026	      0.00000000	      0.00000000	     44.99990378	    -15.00000002	     44.99990378	     75.00017585	     45.00000026	      0.00000000	      0.00000000
